<mxfile host="app.diagrams.net" modified="2024-01-03T02:16:04.191Z" agent="Mozilla/5.0 (Windows NT 10.0; Win64; x64) AppleWebKit/537.36 (KHTML, like Gecko) Chrome/119.0.6045.160 Safari/537.36" version="22.1.16" etag="wTqC_g202n1vyYNt54zj" type="github">
  <diagram name="第 1 页" id="TeJVKXTIk4ylGE-b8FwO">
    <mxGraphModel>
      <root>
        <mxCell id="0" />
        <mxCell id="1" parent="0" />
      </root>
    </mxGraphModel>
  </diagram>
</mxfile>
